<mxfile host="app.diagrams.net" agent="Mozilla/5.0 (Windows NT 10.0; Win64; x64) AppleWebKit/537.36 (KHTML, like Gecko) Chrome/129.0.0.0 Safari/537.36" version="24.8.0">
  <diagram id="C5RBs43oDa-KdzZeNtuy" name="Page-1">
    <mxGraphModel dx="1034" dy="452" grid="1" gridSize="10" guides="1" tooltips="1" connect="1" arrows="1" fold="1" page="1" pageScale="1" pageWidth="827" pageHeight="1169" math="0" shadow="0">
      <root>
        <mxCell id="WIyWlLk6GJQsqaUBKTNV-0" />
        <mxCell id="WIyWlLk6GJQsqaUBKTNV-1" parent="WIyWlLk6GJQsqaUBKTNV-0" />
        <mxCell id="80Q0q_pPlhcz2nu9SwjC-2" style="edgeStyle=orthogonalEdgeStyle;rounded=0;orthogonalLoop=1;jettySize=auto;html=1;entryX=0;entryY=0.5;entryDx=0;entryDy=0;" edge="1" parent="WIyWlLk6GJQsqaUBKTNV-1" source="80Q0q_pPlhcz2nu9SwjC-0" target="80Q0q_pPlhcz2nu9SwjC-1">
          <mxGeometry relative="1" as="geometry" />
        </mxCell>
        <mxCell id="80Q0q_pPlhcz2nu9SwjC-0" value="Start Add150Nums.s" style="ellipse;whiteSpace=wrap;html=1;" vertex="1" parent="WIyWlLk6GJQsqaUBKTNV-1">
          <mxGeometry x="10" y="140" width="120" height="80" as="geometry" />
        </mxCell>
        <mxCell id="80Q0q_pPlhcz2nu9SwjC-5" value="" style="edgeStyle=orthogonalEdgeStyle;rounded=0;orthogonalLoop=1;jettySize=auto;html=1;" edge="1" parent="WIyWlLk6GJQsqaUBKTNV-1" source="80Q0q_pPlhcz2nu9SwjC-1" target="80Q0q_pPlhcz2nu9SwjC-4">
          <mxGeometry relative="1" as="geometry" />
        </mxCell>
        <mxCell id="80Q0q_pPlhcz2nu9SwjC-1" value="Generate an myArray containing numbers&amp;nbsp;&lt;div&gt;1 to 150.&amp;nbsp;&amp;nbsp;&lt;/div&gt;" style="rounded=1;whiteSpace=wrap;html=1;" vertex="1" parent="WIyWlLk6GJQsqaUBKTNV-1">
          <mxGeometry x="170" y="150" width="120" height="60" as="geometry" />
        </mxCell>
        <mxCell id="80Q0q_pPlhcz2nu9SwjC-7" value="" style="edgeStyle=orthogonalEdgeStyle;rounded=0;orthogonalLoop=1;jettySize=auto;html=1;" edge="1" parent="WIyWlLk6GJQsqaUBKTNV-1" source="80Q0q_pPlhcz2nu9SwjC-4" target="80Q0q_pPlhcz2nu9SwjC-6">
          <mxGeometry relative="1" as="geometry" />
        </mxCell>
        <mxCell id="80Q0q_pPlhcz2nu9SwjC-4" value="Push all the numbers in myArray to a stack." style="rounded=1;whiteSpace=wrap;html=1;" vertex="1" parent="WIyWlLk6GJQsqaUBKTNV-1">
          <mxGeometry x="340" y="150" width="120" height="60" as="geometry" />
        </mxCell>
        <mxCell id="80Q0q_pPlhcz2nu9SwjC-9" value="" style="edgeStyle=orthogonalEdgeStyle;rounded=0;orthogonalLoop=1;jettySize=auto;html=1;" edge="1" parent="WIyWlLk6GJQsqaUBKTNV-1" source="80Q0q_pPlhcz2nu9SwjC-6" target="80Q0q_pPlhcz2nu9SwjC-8">
          <mxGeometry relative="1" as="geometry" />
        </mxCell>
        <mxCell id="80Q0q_pPlhcz2nu9SwjC-6" value="Pop the 2 top numbers off the stack then push the sum of the 2 numbers on to the stack." style="whiteSpace=wrap;html=1;rounded=1;" vertex="1" parent="WIyWlLk6GJQsqaUBKTNV-1">
          <mxGeometry x="490" y="150" width="170" height="60" as="geometry" />
        </mxCell>
        <mxCell id="80Q0q_pPlhcz2nu9SwjC-10" style="edgeStyle=orthogonalEdgeStyle;rounded=0;orthogonalLoop=1;jettySize=auto;html=1;entryX=1;entryY=0.5;entryDx=0;entryDy=0;exitX=0.957;exitY=0.512;exitDx=0;exitDy=0;exitPerimeter=0;" edge="1" parent="WIyWlLk6GJQsqaUBKTNV-1" source="80Q0q_pPlhcz2nu9SwjC-8" target="80Q0q_pPlhcz2nu9SwjC-6">
          <mxGeometry relative="1" as="geometry">
            <Array as="points">
              <mxPoint x="632" y="320" />
              <mxPoint x="680" y="320" />
              <mxPoint x="680" y="180" />
            </Array>
          </mxGeometry>
        </mxCell>
        <mxCell id="80Q0q_pPlhcz2nu9SwjC-12" value="No" style="edgeLabel;html=1;align=center;verticalAlign=middle;resizable=0;points=[];" vertex="1" connectable="0" parent="80Q0q_pPlhcz2nu9SwjC-10">
          <mxGeometry x="-0.7604" y="1" relative="1" as="geometry">
            <mxPoint x="-6" y="1" as="offset" />
          </mxGeometry>
        </mxCell>
        <mxCell id="80Q0q_pPlhcz2nu9SwjC-15" value="" style="edgeStyle=orthogonalEdgeStyle;rounded=0;orthogonalLoop=1;jettySize=auto;html=1;exitX=0.023;exitY=0.504;exitDx=0;exitDy=0;exitPerimeter=0;" edge="1" parent="WIyWlLk6GJQsqaUBKTNV-1" source="80Q0q_pPlhcz2nu9SwjC-8" target="80Q0q_pPlhcz2nu9SwjC-14">
          <mxGeometry relative="1" as="geometry" />
        </mxCell>
        <mxCell id="80Q0q_pPlhcz2nu9SwjC-18" value="Yes" style="edgeLabel;html=1;align=center;verticalAlign=middle;resizable=0;points=[];" vertex="1" connectable="0" parent="80Q0q_pPlhcz2nu9SwjC-15">
          <mxGeometry x="-0.2965" y="1" relative="1" as="geometry">
            <mxPoint as="offset" />
          </mxGeometry>
        </mxCell>
        <mxCell id="80Q0q_pPlhcz2nu9SwjC-8" value="Stack contains&amp;nbsp;&lt;div&gt;only&amp;nbsp;&lt;span style=&quot;background-color: initial;&quot;&gt;1&amp;nbsp;&lt;/span&gt;&lt;span style=&quot;background-color: initial;&quot;&gt;number?&lt;/span&gt;&lt;/div&gt;" style="rhombus;whiteSpace=wrap;html=1;rounded=1;" vertex="1" parent="WIyWlLk6GJQsqaUBKTNV-1">
          <mxGeometry x="512.5" y="260" width="125" height="120" as="geometry" />
        </mxCell>
        <mxCell id="80Q0q_pPlhcz2nu9SwjC-17" value="" style="edgeStyle=orthogonalEdgeStyle;rounded=0;orthogonalLoop=1;jettySize=auto;html=1;" edge="1" parent="WIyWlLk6GJQsqaUBKTNV-1" source="80Q0q_pPlhcz2nu9SwjC-14" target="80Q0q_pPlhcz2nu9SwjC-16">
          <mxGeometry relative="1" as="geometry" />
        </mxCell>
        <mxCell id="80Q0q_pPlhcz2nu9SwjC-14" value="Pop the last number off the stack and store the number in sumOfArray variable." style="whiteSpace=wrap;html=1;rounded=1;" vertex="1" parent="WIyWlLk6GJQsqaUBKTNV-1">
          <mxGeometry x="310" y="290" width="120" height="60" as="geometry" />
        </mxCell>
        <mxCell id="80Q0q_pPlhcz2nu9SwjC-16" value="Stop Add150Nums.s" style="ellipse;whiteSpace=wrap;html=1;rounded=1;" vertex="1" parent="WIyWlLk6GJQsqaUBKTNV-1">
          <mxGeometry x="100" y="280" width="110" height="80" as="geometry" />
        </mxCell>
        <mxCell id="80Q0q_pPlhcz2nu9SwjC-19" value="sumOfArray should now contain the sum of the 150 numbers in myArray." style="shape=callout;whiteSpace=wrap;html=1;perimeter=calloutPerimeter;position2=0.36;" vertex="1" parent="WIyWlLk6GJQsqaUBKTNV-1">
          <mxGeometry x="156" y="220" width="140" height="80" as="geometry" />
        </mxCell>
      </root>
    </mxGraphModel>
  </diagram>
</mxfile>
